<svg width="1087" height="144" viewBox="0 0 1087 144" fill="none" xmlns="http://www.w3.org/2000/svg"><path d="M196.8 17.35c8.1 0 13.95 6.3 13.95 13.65 0 7.65-5.85 13.35-13.95 13.35S183 38.65 183 31c0-7.35 5.7-13.65 13.8-13.65m12 111.15h-24V53.2h24zm65.699-77.55c17.55 0 29.25 12.45 29.25 31.35v46.2h-23.85V87.4c0-8.85-5.25-14.85-12.9-14.85-9.45 0-15.6 6.45-15.6 21v34.95h-24V53.2h24v7.2c5.7-6 13.65-9.45 23.1-9.45m81.774 58.8c7.65 0 13.8-4.05 16.35-13.2l22.05 4.8c-3.75 17.85-19.65 29.4-38.4 29.4-22.5 0-41.1-16.05-41.1-39.9 0-23.7 18.6-39.9 41.1-39.9 18.3 0 34.2 11.25 38.4 28.95l-22.5 5.4c-2.1-9.15-8.25-13.35-15.9-13.35-10.8 0-18 7.95-18 18.9 0 11.1 7.2 18.9 18 18.9m87.612-58.5c22.35 0 41.25 15.9 41.25 39.6 0 23.85-18.9 39.75-41.25 39.75-22.8 0-41.7-15.9-41.7-39.75 0-23.7 18.9-39.6 41.7-39.6m0 59.1c9.3 0 18.15-7.65 18.15-19.5 0-11.7-8.85-19.5-18.15-19.5-9.75 0-18.6 7.8-18.6 19.5 0 11.85 8.85 19.5 18.6 19.5m151.131-59.4c16.05 0 28.8 12.15 28.8 30.45v47.1h-23.85v-42c0-8.55-5.55-13.95-12.6-13.95-8.85 0-14.7 6.45-14.7 19.05v36.9h-24v-42c0-8.55-5.55-13.95-12.75-13.95-8.7 0-14.4 6.45-14.4 19.05v36.9h-24V53.2h24v6.9c5.1-5.7 12.45-9.15 22.2-9.15 10.5 0 19.5 4.5 24.6 12.75 6-7.8 15-12.75 26.7-12.75m81.926.3c22.35 0 41.25 15.9 41.25 39.6 0 23.85-18.9 39.75-41.25 39.75-22.8 0-41.7-15.9-41.7-39.75 0-23.7 18.9-39.6 41.7-39.6m0 59.1c9.3 0 18.15-7.65 18.15-19.5 0-11.7-8.85-19.5-18.15-19.5-9.75 0-18.6 7.8-18.6 19.5 0 11.85 8.85 19.5 18.6 19.5M809.773 13v115.5h-24v-6c-5.85 5.25-13.65 8.25-23.4 8.25-19.95 0-36.75-16.05-36.75-39.9 0-23.7 16.8-39.9 36.75-39.9 9.75 0 17.55 3 23.4 8.25V13zm-42.45 97.35c9.75 0 18.45-7.8 18.45-19.5 0-11.55-8.7-19.5-18.45-19.5-10.5 0-18.15 7.95-18.15 19.5 0 11.7 7.65 19.5 18.15 19.5M902.406 53.2v75.3h-24v-7.2c-5.7 6-13.65 9.45-23.1 9.45-17.55 0-29.25-12.45-29.25-31.35V53.2h23.85v41.1c0 8.85 5.25 14.85 12.9 14.85 9.45 0 15.6-6.45 15.6-21V53.2zm114.924-2.25c16.05 0 28.8 12.15 28.8 30.45v47.1h-23.85v-42c0-8.55-5.55-13.95-12.6-13.95-8.85 0-14.7 6.45-14.7 19.05v36.9h-24v-42c0-8.55-5.55-13.95-12.75-13.95-8.7 0-14.4 6.45-14.4 19.05v36.9h-24V53.2h24v6.9c5.1-5.7 12.45-9.15 22.2-9.15 10.5 0 19.5 4.5 24.6 12.75 6-7.8 15-12.75 26.7-12.75m54.93 51.3c7.95 0 13.8 6.3 13.8 13.5 0 7.65-5.85 13.5-13.8 13.5s-13.65-5.85-13.65-13.5c0-7.2 5.7-13.5 13.65-13.5" fill="#fff"/><circle cx="72.5" cy="71.5" r="27.5" fill="#FF6F61"/><circle cx="72" cy="72" r="59" stroke="#FF6F61" stroke-width="26"/></svg>