<svg xmlns="http://www.w3.org/2000/svg" fill="none" viewBox="0 0 27 27">
	<path d="M18.2311 13.4999C18.2311 16.246 16.005 18.4721 13.259 18.4721C10.513 18.4721 8.28686 16.246 8.28686 13.4999C8.28686 10.7539 10.513 8.52783 13.259 8.52783C16.005 8.52783 18.2311 10.7539 18.2311 13.4999Z" fill="#FF6F61"/>
	<path fill-rule="evenodd" d="M13.259 26.7589C20.5817 26.7589 26.518 20.8227 26.518 13.4999C26.518 6.17722 20.5817 0.240967 13.259 0.240967C5.93625 0.240967 0 6.17722 0 13.4999C0 20.8227 5.93625 26.7589 13.259 26.7589ZM13.259 21.971C17.9374 21.971 21.73 18.1784 21.73 13.4999C21.73 8.82154 17.9374 5.02893 13.259 5.02893C8.58057 5.02893 4.78797 8.82154 4.78797 13.4999C4.78797 18.1784 8.58057 21.971 13.259 21.971ZM18.2311 13.4999C18.2311 16.246 16.005 18.4721 13.259 18.4721C10.513 18.4721 8.28686 16.246 8.28686 13.4999C8.28686 10.7539 10.513 8.52783 13.259 8.52783C16.005 8.52783 18.2311 10.7539 18.2311 13.4999Z" />
    <style>
        path { fill: #FF6F61; }
        @media (prefers-color-scheme: dark) {
            path { fill: #FFF; }
        }
    </style>
</svg>
